<?xml version="1.0" standalone="no"?>
<!DOCTYPE svg PUBLIC "-//W3C//DTD SVG 20010904//EN"
 "http://www.w3.org/TR/2001/REC-SVG-20010904/DTD/svg10.dtd">
<svg version="1.0" xmlns="http://www.w3.org/2000/svg"
 width="2400.000000pt" height="1406.000000pt" viewBox="0 0 2400.000000 1406.000000"
 preserveAspectRatio="xMidYMid meet">

<g transform="translate(0.000000,1406.000000) scale(0.100000,-0.100000)"
fill="#000000" stroke="none">
<path d="M0 7030 l0 -7030 12000 0 12000 0 0 7030 0 7030 -12000 0 -12000 0 0
-7030z m5548 2361 c104 -22 252 -69 252 -79 0 -4 -8 -12 -19 -19 -28 -18 -71
-112 -71 -156 0 -46 7 -46 -147 -3 -434 119 -947 -9 -1282 -320 -222 -207
-361 -456 -427 -764 -28 -130 -25 -391 5 -530 50 -226 162 -458 296 -609 234
-264 504 -417 840 -477 108 -19 338 -18 456 2 434 75 802 341 1003 728 174
334 202 712 80 1086 -29 88 -134 286 -198 370 -61 81 -197 221 -261 267 l-30
22 23 16 c62 45 102 110 102 168 0 24 5 22 64 -20 134 -97 293 -278 394 -449
286 -483 308 -1056 61 -1557 -370 -749 -1233 -1097 -2027 -816 -474 167 -855
560 -1008 1041 -58 183 -68 256 -68 498 0 195 3 238 22 325 76 342 234 623
479 855 135 127 247 206 409 286 54 27 101 51 104 54 3 3 10 6 15 7 6 1 66 18
135 38 187 54 273 65 505 60 151 -3 223 -9 293 -24z m478 -187 c36 -38 44 -85
24 -138 -20 -54 -113 -83 -168 -52 -56 30 -77 107 -47 166 20 38 59 59 114 60
37 0 48 -5 77 -36z m2096 -205 c43 -31 58 -59 58 -112 0 -63 -21 -102 -70
-127 -101 -51 -210 10 -210 119 0 121 125 189 222 120z m-2542 -356 c0 -5 -10
-24 -22 -43 -11 -19 -35 -60 -51 -90 -16 -30 -35 -61 -41 -69 -5 -7 -15 -23
-21 -35 -11 -21 -13 -21 -440 -26 -429 -5 -430 -5 -462 -28 -71 -50 -66 -168
7 -204 31 -16 72 -18 383 -18 191 0 347 -3 347 -6 0 -5 -67 -124 -130 -229
-10 -16 -42 -73 -72 -125 -30 -52 -76 -130 -101 -173 -26 -43 -47 -80 -47 -82
0 -2 -62 -109 -90 -155 -5 -8 -31 -53 -58 -100 -27 -47 -66 -114 -87 -150 -21
-36 -52 -91 -69 -122 l-31 -58 -158 0 -158 0 27 48 c16 26 67 114 116 195 48
82 88 151 88 154 0 3 8 17 19 31 10 15 27 43 37 62 11 19 46 80 79 135 32 55
84 143 115 195 l57 95 -141 6 c-185 8 -259 34 -354 123 -87 82 -126 216 -102
351 29 162 123 260 293 305 66 17 114 19 570 19 273 1 497 -2 497 -6z m570 2
c0 -5 -153 -272 -289 -505 -98 -168 -216 -372 -229 -395 -10 -19 -7 -20 86
-17 228 8 393 -71 468 -223 21 -43 28 -75 32 -144 10 -183 -54 -307 -194 -377
-107 -53 -120 -54 -661 -54 -340 0 -503 3 -503 10 0 6 8 22 17 36 19 29 32 52
88 152 l40 72 418 0 c459 0 472 2 501 59 21 39 20 110 0 140 -34 48 -59 51
-424 51 -187 0 -340 4 -340 9 0 4 22 46 49 92 27 46 84 145 127 219 42 74 103
178 134 230 31 52 68 115 82 140 14 25 42 74 63 110 21 36 46 81 57 100 11 19
24 40 28 45 4 6 25 42 46 80 21 39 53 94 71 123 l34 52 149 0 c83 0 150 -2
150 -5z m10097 -250 c316 -80 526 -296 589 -604 12 -64 15 -113 11 -200 -7
-140 -24 -206 -84 -331 -39 -80 -59 -108 -137 -186 -79 -79 -105 -98 -196
-142 -155 -77 -241 -96 -425 -96 -122 0 -167 4 -239 22 -302 76 -504 271 -588
567 -33 119 -31 305 6 428 43 144 97 238 192 332 209 209 550 291 871 210z
m1969 9 c140 -36 244 -114 297 -224 71 -146 86 -311 87 -907 l0 -403 -240 0
-240 0 0 433 c0 245 -5 460 -10 497 -15 90 -67 168 -130 192 -100 38 -234 15
-299 -52 -73 -76 -75 -88 -79 -607 l-3 -462 -235 -3 c-130 -2 -238 -1 -240 1
-2 2 -4 346 -4 763 l0 758 230 0 230 0 1 -102 c0 -100 1 -102 17 -78 75 109
210 193 347 214 52 8 209 -3 271 -20z m1724 -4 c187 -53 324 -171 414 -354 61
-124 78 -208 84 -403 l4 -163 -546 0 c-430 0 -546 -3 -546 -12 0 -31 61 -137
101 -177 146 -147 417 -127 552 41 17 21 36 37 42 34 8 -3 302 -214 323 -232
7 -5 -80 -93 -131 -133 -70 -54 -195 -115 -292 -143 -68 -19 -102 -23 -230
-22 -154 0 -209 9 -335 55 -305 112 -501 400 -501 739 0 406 271 716 686 786
108 18 278 11 375 -16z m-5020 -237 l-1 -228 -407 -340 -408 -340 418 -3 418
-2 0 -190 0 -190 -680 0 -680 0 0 234 0 234 390 333 389 334 -379 3 -380 2 0
190 0 190 660 0 660 0 0 -227z m-5308 148 c132 -56 221 -160 271 -319 20 -64
21 -89 25 -597 l3 -530 -93 0 -93 0 -6 495 c-4 429 -7 503 -22 554 -48 162
-143 246 -297 262 -121 12 -271 -34 -355 -107 -51 -45 -116 -128 -109 -140 3
-5 1 -9 -5 -9 -6 0 -23 -37 -38 -82 l-27 -83 -6 -445 -5 -445 -93 -3 c-68 -2
-93 1 -97 10 -2 7 -5 336 -7 731 l-3 717 91 0 91 0 7 -77 c3 -42 6 -101 6
-132 l0 -56 37 55 c67 101 170 181 271 211 4 2 25 9 47 16 28 9 84 12 185 10
138 -3 149 -5 222 -36z m3173 9 c252 -80 436 -272 501 -525 25 -95 25 -311 1
-410 -53 -212 -223 -411 -421 -494 -114 -47 -220 -64 -360 -58 -142 6 -212 23
-321 77 -189 93 -325 260 -382 470 -25 93 -25 328 1 425 71 268 281 468 556
530 100 22 334 14 425 -15z m-4647 -727 l2 -723 -100 0 -100 0 0 718 c0 395 3
722 7 726 4 4 48 5 98 4 l90 -3 3 -722z m2341 577 c32 -80 78 -199 104 -265
25 -66 76 -196 112 -290 36 -93 96 -246 132 -340 36 -93 69 -174 73 -179 5 -4
11 3 15 15 4 13 69 186 145 384 76 198 175 459 220 580 46 121 88 226 93 233
10 12 151 18 180 6 12 -4 -6 -58 -88 -262 -120 -301 -295 -744 -391 -992 -37
-96 -71 -179 -75 -185 -4 -6 -48 -9 -106 -7 l-98 3 -240 582 c-131 320 -263
640 -292 711 -29 71 -53 135 -53 143 0 11 20 13 106 11 l106 -3 57 -145z
m8671 -2580 c43 -43 12 -113 -50 -113 -16 0 -39 8 -50 18 -43 39 -11 115 50
115 17 0 39 -9 50 -20z m-14990 -65 c0 -62 8 -58 -107 -55 -124 3 -113 34
-113 -306 l0 -294 -65 0 -65 0 -2 298 -3 297 -105 0 c-103 0 -105 0 -108 24
-2 13 -1 39 3 57 l6 34 279 0 280 0 0 -55z m1351 38 c0 -10 0 -70 -1 -133 l0
-115 26 34 c64 79 205 83 272 6 43 -48 53 -111 50 -310 l-3 -170 -62 -3 -63
-3 0 169 c0 187 -8 225 -51 247 -44 23 -85 19 -121 -14 l-33 -29 -5 -184 -5
-183 -62 -3 -63 -3 0 356 0 355 60 0 c50 0 60 -3 61 -17z m1849 -338 l0 -355
-65 0 -65 0 0 355 0 355 65 0 65 0 0 -355z m2630 332 c79 -36 120 -98 128
-194 6 -78 -14 -136 -65 -187 -47 -47 -112 -66 -225 -66 l-88 0 0 -120 0 -120
-65 0 -65 0 0 356 0 356 173 -4 c130 -3 180 -8 207 -21z m4008 -34 l3 -53
-166 0 -166 0 3 -92 3 -93 143 -3 142 -3 0 -54 0 -55 -145 0 -145 0 0 -149 0
-149 -62 2 -63 1 -3 340 c-1 187 0 346 3 353 3 10 54 12 227 10 l223 -3 3 -52z
m1517 -298 l0 -350 -62 -3 -63 -3 0 356 0 356 63 -3 62 -3 0 -350z m-4095 240
l0 -65 48 0 c27 0 51 -2 53 -4 2 -3 3 -25 1 -50 l-4 -46 -49 0 -49 0 0 -149
c0 -163 1 -167 60 -173 31 -3 35 -7 42 -43 13 -59 7 -65 -62 -65 -67 0 -102
14 -140 55 -24 26 -25 31 -28 201 l-4 174 -34 0 -34 0 0 50 0 50 35 0 35 0 0
65 0 65 65 0 65 0 0 -65z m7380 0 l0 -65 56 0 55 0 -3 -47 -3 -48 -52 -3 -53
-3 0 -134 c0 -166 6 -185 58 -185 38 0 39 -1 49 -47 14 -58 8 -63 -63 -63 -67
0 -120 23 -144 63 -18 28 -20 51 -20 199 l0 167 -37 3 c-38 3 -38 3 -41 51
l-3 47 40 0 41 0 0 65 0 65 60 0 60 0 0 -65z m-14239 -88 c24 -14 52 -35 61
-46 26 -31 58 -134 58 -186 l0 -45 -186 0 -185 0 6 -22 c4 -13 9 -31 11 -40 3
-9 19 -29 35 -43 25 -20 41 -25 86 -25 48 0 58 4 83 30 29 31 51 35 109 24 39
-8 39 -20 0 -73 -43 -60 -103 -85 -199 -85 -59 0 -85 5 -119 23 -107 56 -155
164 -131 299 17 101 61 163 145 203 58 29 167 22 226 -14z m579 14 c58 -27 75
-42 97 -83 29 -54 30 -88 3 -89 -85 -6 -94 -4 -106 18 -24 49 -45 63 -96 63
-65 0 -101 -33 -117 -109 -26 -120 30 -221 121 -221 33 0 75 28 88 60 12 29
15 30 71 30 56 0 59 -1 59 -25 0 -41 -35 -99 -77 -128 -96 -66 -243 -56 -323
23 -54 53 -75 113 -74 210 1 128 42 201 139 247 42 20 61 23 120 20 39 -3 81
-10 95 -16z m1254 -12 c65 -44 71 -68 74 -301 l3 -208 -65 0 -65 0 -3 191 -3
191 -28 24 c-32 27 -75 31 -115 10 -49 -25 -57 -56 -54 -200 2 -72 0 -150 -3
-173 l-6 -43 -60 0 -59 0 0 249 c0 137 -3 256 -6 265 -5 14 4 16 60 16 l66 0
0 -42 c1 -39 2 -41 13 -21 15 26 55 59 82 66 47 13 133 1 169 -24z m548 15
c54 -18 107 -66 134 -120 27 -56 32 -191 9 -251 -77 -202 -360 -217 -457 -24
-24 46 -28 67 -28 133 0 95 19 148 73 205 66 69 170 91 269 57z m931 -17 c50
-30 103 -101 114 -156 48 -233 -115 -407 -323 -346 -75 21 -134 79 -159 155
-23 70 -17 188 13 246 27 52 92 109 140 123 64 18 165 7 215 -22z m521 19 c18
-7 45 -29 59 -47 l27 -34 0 43 0 42 60 0 60 0 0 -297 c0 -284 -1 -300 -21
-332 -43 -71 -110 -101 -229 -101 -64 0 -86 5 -131 28 -46 23 -99 77 -99 101
0 4 25 12 57 19 54 11 57 11 79 -13 28 -30 61 -39 125 -33 66 7 82 24 89 98 7
73 0 88 -26 59 -81 -91 -261 -47 -315 76 -43 99 -32 243 25 318 57 76 159 107
240 73z m2157 -1 c24 -9 54 -26 67 -38 49 -45 52 -63 52 -282 l0 -205 -60 0
-60 0 0 38 0 37 -23 -27 c-41 -48 -114 -67 -189 -48 -119 30 -165 172 -83 254
36 36 83 52 192 65 85 11 93 15 93 47 0 40 -18 63 -55 70 -48 9 -83 -2 -114
-35 -26 -28 -29 -28 -84 -19 -31 6 -57 13 -57 16 0 17 42 72 72 95 61 47 168
60 249 32z m569 -45 l0 -60 -54 0 c-44 0 -61 -5 -83 -24 l-28 -24 -5 -184 -5
-183 -62 -3 -63 -3 0 266 0 265 60 0 60 0 0 -42 1 -43 14 26 c21 40 73 69 123
69 l42 0 0 -60z m900 38 c32 -16 52 -36 70 -68 24 -44 25 -51 25 -245 l0 -200
-62 -3 -63 -3 0 163 c0 181 -9 228 -45 252 -45 30 -130 12 -151 -31 -5 -10
-11 -99 -14 -198 l-5 -180 -62 -3 -63 -3 0 266 0 265 60 0 60 0 0 -42 0 -42
28 32 c56 65 141 81 222 40z m585 -6 c79 -40 116 -104 123 -209 l5 -73 -182 0
c-200 0 -195 2 -167 -63 19 -47 55 -67 120 -67 47 0 58 4 85 31 29 29 34 30
85 24 54 -7 55 -7 45 -34 -43 -113 -225 -162 -350 -95 -98 53 -146 174 -120
301 28 140 123 218 256 210 34 -3 78 -13 100 -25z m563 -35 l3 -59 -39 7 c-52
8 -106 -14 -126 -54 -13 -24 -16 -65 -16 -201 l0 -171 -62 3 -63 3 -3 263 -2
262 65 0 65 0 0 -37 c0 -37 0 -37 16 -14 27 38 75 62 119 59 l40 -3 3 -58z
m1239 48 c58 -17 117 -70 144 -129 29 -63 26 -196 -5 -261 -45 -95 -116 -138
-228 -138 -147 0 -248 109 -248 269 0 197 152 314 337 259z m603 -45 l0 -60
-43 2 c-60 3 -103 -17 -121 -57 -13 -26 -16 -69 -16 -199 l0 -167 -62 3 -63 3
-3 263 -2 262 65 0 65 0 0 -36 0 -36 27 32 c32 38 55 49 111 49 l42 1 0 -60z
m1011 49 c50 -16 96 -72 109 -133 7 -30 10 -121 8 -221 l-3 -170 -62 -3 -62
-3 -3 191 -3 192 -28 24 c-41 35 -97 33 -139 -5 l-33 -29 -5 -184 -5 -183 -60
0 -60 0 -3 263 -2 262 65 0 65 0 0 -37 0 -38 23 27 c42 51 124 71 198 47z
m610 1 c19 -5 47 -22 62 -37 51 -54 57 -85 57 -298 l0 -196 -62 3 -63 3 -5
188 -5 189 -28 24 c-36 31 -94 32 -130 3 -38 -29 -48 -83 -47 -242 1 -78 1
-148 1 -154 -1 -9 -20 -13 -61 -13 l-60 0 0 265 0 265 60 0 60 0 0 -41 0 -41
27 33 c46 54 113 71 194 49z m586 -6 c101 -34 163 -129 163 -250 0 -94 -23
-157 -76 -210 -52 -53 -99 -67 -196 -63 -61 4 -82 9 -116 32 -79 52 -119 148
-109 262 14 181 166 285 334 229z m1149 1 c49 -14 90 -48 113 -92 7 -14 11
-95 11 -228 l0 -206 -57 3 c-58 3 -58 3 -61 37 -3 32 -4 32 -17 13 -39 -55
-182 -72 -246 -29 -49 32 -71 80 -66 145 6 90 53 124 203 146 53 8 104 21 111
29 19 19 7 64 -23 84 -37 24 -112 12 -142 -22 -21 -25 -28 -27 -74 -22 -28 4
-53 9 -56 11 -11 11 23 69 54 93 66 50 161 65 250 38z m1267 1 c159 -57 218
-276 115 -430 -82 -124 -286 -134 -389 -19 -47 52 -63 100 -63 193 -1 162 99
268 254 269 25 0 62 -6 83 -13z m637 4 c43 -12 93 -62 109 -109 7 -21 11 -110
11 -228 l0 -194 -62 3 -63 3 -5 185 c-3 102 -9 192 -13 202 -22 43 -121 48
-161 8 -19 -19 -21 -36 -26 -208 l-5 -187 -62 -3 -63 -3 0 266 0 265 60 0 60
0 0 -41 0 -41 25 30 c47 56 116 74 195 52z m-11395 -87 c74 -248 89 -293 96
-286 4 5 31 89 61 188 l55 180 66 3 c38 2 67 -1 67 -7 0 -8 -110 -324 -177
-506 -60 -164 -103 -205 -214 -205 -77 0 -84 7 -66 61 14 41 18 44 53 47 22 2
46 10 56 18 32 29 29 59 -16 186 -24 68 -66 187 -94 266 l-51 142 69 0 69 0
26 -87z m8755 -45 c23 -73 48 -155 57 -183 8 -27 18 -53 22 -57 4 -4 19 34 34
85 16 50 42 136 59 190 l31 97 63 0 c35 0 64 -4 64 -9 0 -17 -172 -495 -182
-508 -6 -8 -35 -13 -73 -13 l-62 0 -91 258 c-51 142 -92 262 -92 265 0 4 29 7
65 7 l64 0 41 -132z m1530 -133 l0 -265 -60 0 -60 0 0 265 0 265 60 0 60 0 0
-265z"/>
<path d="M15887 8000 c-94 -24 -182 -98 -225 -190 -24 -50 -26 -66 -27 -180 0
-115 2 -130 26 -181 34 -73 96 -134 168 -167 81 -38 222 -43 315 -12 83 27
154 91 193 175 26 56 28 69 28 185 0 114 -2 130 -26 181 -34 73 -96 134 -168
167 -46 21 -73 27 -151 29 -52 1 -112 -2 -133 -7z"/>
<path d="M19602 8080 c-124 -26 -225 -126 -247 -243 l-7 -37 312 0 313 0 -7
42 c-16 97 -79 183 -162 219 -51 23 -143 31 -202 19z"/>
<path d="M12425 8170 c-198 -36 -356 -176 -422 -374 -23 -71 -27 -97 -27 -206
0 -109 4 -135 27 -202 34 -100 80 -171 157 -241 109 -102 217 -140 390 -139
122 0 225 27 310 82 108 69 209 217 241 350 17 71 17 229 0 300 -47 195 -196
359 -378 416 -59 18 -230 26 -298 14z"/>
<path d="M9740 5345 l0 -125 76 0 c123 0 170 37 167 132 -4 83 -43 112 -160
115 l-83 2 0 -124z"/>
<path d="M4385 5296 c-32 -14 -58 -46 -67 -83 -6 -23 -6 -23 114 -23 l121 0
-7 32 c-8 40 -23 58 -63 75 -40 16 -59 16 -98 -1z"/>
<path d="M6802 5295 c-62 -27 -94 -163 -58 -249 42 -101 170 -101 212 0 35 83
5 218 -55 248 -37 19 -56 20 -99 1z"/>
<path d="M7694 5295 c-42 -21 -65 -66 -71 -136 -13 -137 71 -223 172 -177 78
35 90 237 19 300 -29 25 -84 31 -120 13z"/>
<path d="M8292 5284 c-70 -49 -78 -203 -14 -267 25 -24 39 -30 74 -30 84 0
121 47 121 156 0 103 -41 157 -118 157 -22 0 -51 -7 -63 -16z"/>
<path d="M10463 5103 c-88 -14 -111 -26 -119 -59 -16 -62 46 -100 124 -75 50
15 74 50 70 104 l-3 42 -72 -12z"/>
<path d="M12445 5300 c-29 -12 -63 -51 -70 -82 l-7 -28 121 0 c133 0 136 2
106 60 -26 50 -95 73 -150 50z"/>
<path d="M14272 5295 c-85 -38 -99 -234 -21 -299 34 -29 81 -34 124 -14 79 36
90 236 18 301 -28 25 -81 30 -121 12z"/>
<path d="M17079 5295 c-14 -8 -34 -26 -44 -41 -23 -35 -32 -148 -16 -197 35
-104 164 -119 212 -25 26 51 29 145 6 200 -27 65 -100 94 -158 63z"/>
<path d="M18310 5110 c-19 -5 -52 -12 -73 -15 -71 -11 -100 -72 -55 -115 24
-22 79 -27 122 -10 35 13 66 66 66 113 0 40 -2 40 -60 27z"/>
<path d="M19505 5301 c-92 -38 -113 -224 -35 -303 23 -23 37 -28 75 -28 58 0
97 35 115 101 38 141 -50 272 -155 230z"/>
</g>
</svg>
