<?xml version="1.0" standalone="no"?>
<!DOCTYPE svg PUBLIC "-//W3C//DTD SVG 20010904//EN"
 "http://www.w3.org/TR/2001/REC-SVG-20010904/DTD/svg10.dtd">
<svg version="1.0" xmlns="http://www.w3.org/2000/svg"
 width="200.000000pt" height="200.000000pt" viewBox="0 0 200.000000 200.000000"
 preserveAspectRatio="xMidYMid meet">

<g transform="translate(0.000000,200.000000) scale(0.100000,-0.100000)"
fill="#000000" stroke="none">
<path d="M1007 1472 l-237 -238 0 -232 c0 -128 2 -232 5 -232 12 0 355 302
355 313 1 6 5 56 9 110 9 98 10 99 48 131 l38 34 11 173 c5 96 10 175 9 176
-1 1 -108 -105 -238 -235z m1 -244 l-163 -157 -3 77 -3 76 163 163 163 163 3
-82 3 -83 -163 -157z m66 -70 l-7 -73 -105 -100 c-57 -55 -108 -101 -113 -103
-5 -2 -9 30 -9 72 l0 75 118 100 c64 55 118 101 120 101 2 0 0 -33 -4 -72z"/>
<path d="M1130 588 c-61 -31 -90 -77 -90 -143 0 -120 125 -191 245 -141 35 15
35 15 35 80 0 59 -2 66 -20 66 -18 0 -20 -7 -20 -54 0 -61 -6 -66 -73 -66 -82
0 -142 70 -123 145 18 72 106 112 176 80 37 -17 60 -14 60 6 0 15 -80 49 -115
49 -17 0 -51 -10 -75 -22z"/>
<path d="M90 445 l0 -155 104 0 c114 0 147 14 160 65 7 27 -15 80 -36 87 -8 3
-7 11 5 28 9 14 17 34 17 46 0 64 -38 84 -160 84 l-90 0 0 -155z m191 97 c21
-27 14 -59 -15 -68 -52 -16 -86 -37 -86 -55 0 -18 1 -18 36 -2 32 16 38 16 62
2 20 -11 27 -23 27 -44 0 -39 -32 -55 -112 -55 l-63 0 0 118 c0 65 3 122 8
126 4 4 34 6 66 4 45 -4 63 -10 77 -26z"/>
<path d="M430 445 l0 -155 110 0 c103 0 110 1 110 20 0 18 -7 20 -85 20 l-85
0 0 135 0 135 -25 0 -25 0 0 -155z"/>
<path d="M811 558 c-29 -67 -113 -252 -118 -260 -2 -5 7 -8 20 -8 20 0 28 9
41 40 l16 40 83 0 84 0 18 -40 c13 -30 24 -40 41 -40 22 0 20 6 -42 143 -36
78 -68 148 -71 155 -3 6 -16 12 -29 12 -19 0 -29 -9 -43 -42z m109 -150 c0 -5
-29 -8 -65 -8 -36 0 -65 4 -65 9 0 4 14 39 32 77 l31 69 33 -70 c18 -38 33
-73 34 -77z"/>
<path d="M1410 445 l0 -155 105 0 c98 0 105 1 105 20 0 18 -7 20 -85 20 l-85
0 0 135 c0 128 -1 135 -20 135 -19 0 -20 -7 -20 -155z"/>
<path d="M1680 445 l0 -155 110 0 c103 0 110 1 110 20 0 19 -7 20 -90 20 l-90
0 0 50 0 50 80 0 c73 0 80 2 80 20 0 18 -7 20 -81 20 l-80 0 3 48 3 47 88 3
c68 2 87 6 87 17 0 12 -20 15 -110 15 l-110 0 0 -155z"/>
</g>
</svg>
